<svg width="35" height="55" viewBox="0 0 35 55" fill="none" xmlns="http://www.w3.org/2000/svg">
<path fill-rule="evenodd" clip-rule="evenodd" d="M0 0H34.9L30.8117 44.5621C30.5657 47.2443 29.4142 49.7312 27.5808 51.54C25.7474 53.3488 23.3629 54.3505 20.8901 54.3506H14.0098C11.5371 54.3505 9.15259 53.3488 7.31919 51.54C5.4858 49.7312 4.33432 47.2443 4.08828 44.5621L0 0ZM6.25707 13.5877L5.50921 5.43506H29.3908L28.6429 13.5877H6.25707ZM6.75564 19.0227L9.04906 44.0213C9.17208 45.3624 9.74782 46.6058 10.6645 47.5103C11.5812 48.4147 12.7735 48.9155 14.0098 48.9155H20.8901C22.1265 48.9155 23.3188 48.4147 24.2355 47.5103C25.1522 46.6058 25.7279 45.3624 25.8509 44.0213L28.1443 19.0227H6.75564Z" fill="black"/>
</svg>
